<?xml version="1.0" encoding="UTF-8"?>
<svg xmlns="http://www.w3.org/2000/svg" xmlns:xlink="http://www.w3.org/1999/xlink"
     width="800" height="800" viewBox="0 0 800 800">
<defs>
</defs>
<circle cx="98.27586206896552" cy="146.55172413793105" r="4" fill="red" />
<circle cx="177.9310344827586" cy="158.6206896551724" r="4" fill="red" />
<circle cx="484.48275862068965" cy="750.0" r="4" fill="red" />
<circle cx="351.7241379310345" cy="622.0689655172414" r="4" fill="red" />
<circle cx="218.9655172413793" cy="267.2413793103448" r="4" fill="red" />
<circle cx="416.8965517241379" cy="214.13793103448276" r="4" fill="red" />
<circle cx="50.0" cy="50.0" r="4" fill="red" />
<circle cx="125.79310344827586" cy="115.41379310344827" r="4" fill="red" />
<circle cx="532.7586206896551" cy="291.37931034482756" r="4" fill="red" />
<circle cx="257.58620689655174" cy="467.58620689655174" r="4" fill="red" />
<circle cx="146.55172413793105" cy="339.6551724137931" r="4" fill="red" />
<circle cx="279.31034482758616" cy="78.9655172413793" r="4" fill="red" />
<path d="M137.91180000428625,153.85108548895226 L124.74137931034484,240.7758620689655" stroke="blue" stroke-width="2" />
<path d="M122.41379310344827,243.10344827586206 L124.74137931034484,240.7758620689655" stroke="blue" stroke-width="2" />
<path d="M278.7504748237876,182.59464820833153 L124.74137931034484,240.7758620689655" stroke="blue" stroke-width="2" />
<path d="M137.91180000428625,153.85108548895226 L74.70385395537525,97.99290060851926" stroke="blue" stroke-width="2" />
<path d="M137.91180000428625,153.85108548895226 L198.61348867761942,80.60212038593572" stroke="blue" stroke-width="2" />
<path d="M122.41379310344827,243.10344827586206 L-553.448275862069,412.0689655172414" stroke="blue" stroke-width="2" />
<path d="M122.41379310344827,243.10344827586206 L245.3587600139324,366.0484151863462" stroke="blue" stroke-width="2" />
<path d="M-553.448275862069,412.0689655172414 L74.70385395537525,97.99290060851926" stroke="blue" stroke-width="2" />
<path d="M175.11891115005812,-18.35517304140849 L74.70385395537525,97.99290060851926" stroke="blue" stroke-width="2" />
<path d="M198.61348867761942,80.60212038593572 L278.7504748237876,182.59464820833153" stroke="blue" stroke-width="2" />
<path d="M304.56433517760445,190.8683213986575 L278.7504748237876,182.59464820833153" stroke="blue" stroke-width="2" />
<path d="M198.61348867761942,80.60212038593572 L175.11891115005812,-18.35517304140849" stroke="blue" stroke-width="2" />
<path d="M571.0982953353906,527.2662452440156 L445.9254896361342,458.7409866495323" stroke="blue" stroke-width="2" />
<path d="M445.9254896361342,458.7409866495323 L-585.8665906499449,1087.489285573862" stroke="blue" stroke-width="2" />
<path d="M445.9254896361342,458.7409866495323 L392.8072205507984,375.78916917380246" stroke="blue" stroke-width="2" />
<path d="M245.3587600139324,366.0484151863462 L-585.8665906499449,1087.489285573862" stroke="blue" stroke-width="2" />
<path d="M304.56433517760445,190.8683213986575 L346.3411567476948,346.5819290689943" stroke="blue" stroke-width="2" />
<path d="M346.3411567476948,346.5819290689943 L245.3587600139324,366.0484151863462" stroke="blue" stroke-width="2" />
<path d="M346.3411567476948,346.5819290689943 L392.8072205507984,375.78916917380246" stroke="blue" stroke-width="2" />
<path d="M962.6372924648778,-478.9559386973174 L304.56433517760445,190.8683213986575" stroke="blue" stroke-width="2" />
<path d="M962.6372924648778,-478.9559386973174 L392.8072205507984,375.78916917380246" stroke="blue" stroke-width="2" />
<path d="M-553.448275862069,412.0689655172414 L-58484.48275862069,19722.41379310345" stroke="green" stroke-width="2" />
<path d="M571.0982953353906,527.2662452440156 L-25015.10860121634,27078.990383175053" stroke="green" stroke-width="2" />
<path d="M571.0982953353906,527.2662452440156 L92295.23622636987,10182.438659037118" stroke="green" stroke-width="2" />
<path d="M-585.8665906499449,1087.489285573862 L-57068.6252113396,42121.97204419455" stroke="green" stroke-width="2" />
<path d="M962.6372924648778,-478.9559386973174 L43445.39591315454,-51168.61111111111" stroke="green" stroke-width="2" />
<path d="M175.11891115005812,-18.35517304140849 L5968.22235942592,-45880.42413855865" stroke="green" stroke-width="2" />
</svg>